<?xml version="1.0" encoding="UTF-8"?>
<svg id="Layer_2" data-name="Layer 2" xmlns="http://www.w3.org/2000/svg" viewBox="0 0 342.18 66.7">
  <defs>
    <style>
      .cls-1 {
        fill: #111d2b;
      }

      .cls-2 {
        font-family: Futura-Medium, Futura;
        font-weight: 500;
      }

      .cls-2, .cls-3 {
        font-size: 42.56px;
      }

      .cls-4 {
        letter-spacing: .02em;
      }

      .cls-5 {
        letter-spacing: -.01em;
      }

      .cls-3 {
        font-family: Futura-Bold, Futura;
        font-weight: 700;
      }
    </style>
  </defs>
  <g id="Layer_2-2" data-name="Layer 2">
    <g id="Layer_2-3" data-name="Layer 2">
      <g>
        <path class="cls-1" d="m30.72,4.2c-.63,2.31-1.26,4.2-1.26,4.2,0,0,1.89.42,3.99.84s3.78.84,3.99.84c0,0-2.31,2.52-5.04,5.46s-5.25,5.46-5.25,5.46c0,0,.42-1.68,1.05-3.57.63-1.89,1.26-3.78,1.47-4.41l.21-.84-3.99-.42c-2.1-.42-3.99-.84-3.99-1.05S31.98,0,31.98,0c.21,0-.42,1.89-1.26,4.2Z"/>
        <path class="cls-1" d="m56.77,6.93c1.68,6.09,2.31,9.45,2.52,12.6.42,7.35-1.68,12.81-5.88,15.97l-1.47,1.05v2.52c-.21,5.67-2.31,10.08-5.67,12.18-.42.21-.84.42-.84.42,0,0,.21-1.05.63-2.1,1.26-3.36,1.68-6.72,1.26-9.45-.21-1.47-.42-1.68-.63-1.47-.21,0-.21.63-.21,1.47,0,2.31-.63,3.57-1.89,4.83-.63.63-1.26,1.26-1.26,1.05,0,0,0-.63.21-1.26.42-1.26.42-3.57.21-4.62l-.21-.84-3.78.21h-5.88l-2.1-.21-.21-2.31v-5.25c.42-5.25,1.68-8.61,4.2-11.13,1.68-1.68,3.15-2.52,7.56-4.41,1.89-.84,3.78-1.68,4.41-2.1,3.99-2.31,6.51-6.09,7.77-11.76,0-.42.21-.63.21-.63-.21.21.42,2.52,1.05,5.25Zm-9.45,15.76c-.42.21-1.68.84-3.15,1.26-3.36,1.26-3.99,1.68-5.04,2.73-.84,1.05-1.47,2.31-1.68,4.62q-.42,2.31,1.26,2.1c3.99-.42,6.93-1.47,8.4-3.15,1.05-1.26,1.47-2.73,1.47-5.46,0-1.26-.21-2.31-.21-2.31-.21-.21-.63,0-1.05.21Z"/>
        <path class="cls-1" d="m3.83,1.89s.21.21.21.63c1.26,5.67,3.78,9.45,7.77,11.76.63.42,2.73,1.26,4.41,2.1,4.41,1.89,5.88,2.73,7.56,4.41,2.52,2.52,3.78,5.88,4.2,11.13.21,1.47.21,3.99,0,5.25l-.21,2.31-2.1.21h-5.88l-3.78-.21-.21.84c-.42,1.26-.21,3.36.21,4.62.21.63.21,1.26.21,1.26,0,0-.63-.42-1.26-1.05-1.47-1.47-1.89-2.73-1.89-4.83,0-.84-.21-1.47-.21-1.47-.42-.21-.42,0-.63,1.47-.42,2.73,0,6.09,1.26,9.45.42,1.05.63,2.1.63,2.1,0,0-.42-.21-.84-.42-3.36-2.31-5.46-6.72-5.67-12.18l-.21-2.52-1.47-1.05C1.73,32.56-.37,27.1.05,19.75c.21-3.15.84-6.51,2.52-12.6.63-2.94,1.26-5.25,1.26-5.25Zm7.35,20.38c-.21,0-.21,1.05-.21,2.31,0,2.73.21,4.2,1.47,5.46,1.47,1.68,4.62,2.94,8.4,3.15,1.68.21,1.47.21,1.26-2.1-.42-2.31-.84-3.78-1.68-4.62-1.05-1.05-1.68-1.47-5.04-2.73-1.47-.63-2.73-1.05-3.15-1.26-.63,0-1.05-.21-1.05-.21Z"/>
        <path class="cls-1" d="m34.72,42.02c1.26.42,1.89,1.05,1.89,1.89,0,1.47-.42,1.89-2.94,2.31-1.68.21-6.3.21-8.4,0-2.1-.42-2.73-.84-2.73-2.1,0-1.47.63-1.89,3.36-2.31,1.47-.42,7.56-.21,8.82.21Z"/>
        <path class="cls-1" d="m37.24,49.79c3.36.84,5.04,2.1,5.46,3.99.63,2.73-.84,5.46-3.57,6.72-2.52,1.05-3.99,1.26-9.45,1.26-3.99,0-5.25,0-6.72-.42-4.41-1.05-6.51-3.15-6.51-6.51,0-2.94,2.31-4.62,6.93-5.46,1.26-.21,3.15-.21,6.93-.21,4.41.21,5.46.21,6.93.63Zm-11.97,2.94c-2.52.42-3.36.63-4.2,1.05-1.26.63-1.47,1.05-1.26,2.31.42,1.89,2.73,2.52,7.98,2.73,7.35.42,11.55-.84,11.55-3.36,0-1.05-.42-1.47-2.73-2.1-1.47-.42-2.52-.42-6.3-.63-2.52-.21-4.62-.21-5.04,0Z"/>
      </g>
    </g>
    <text class="cls-3" transform="translate(81.72 52.06)"><tspan class="cls-4" x="0" y="0">C</tspan><tspan x="29.15" y="0">AB</tspan><tspan class="cls-5" x="92.74" y="0">R</tspan><tspan x="122.32" y="0">ON</tspan></text>
    <text class="cls-2" transform="translate(298.19 52.49)"><tspan x="0" y="0">UI</tspan></text>
  </g>
</svg>